<svg width="35" height="35" viewBox="0 0 35 35" fill="#B3B3B3" xmlns="http://www.w3.org/2000/svg">
<path id="Vector" d="M32.5 20.5H20V33C20 33.663 19.7366 34.2989 19.2678 34.7678C18.7989 35.2366 18.163 35.5 17.5 35.5C16.837 35.5 16.2011 35.2366 15.7322 34.7678C15.2634 34.2989 15 33.663 15 33V20.5H2.5C1.83696 20.5 1.20107 20.2366 0.732234 19.7678C0.263393 19.2989 0 18.663 0 18C0 17.337 0.263393 16.7011 0.732234 16.2322C1.20107 15.7634 1.83696 15.5 2.5 15.5H15V3C15 2.33696 15.2634 1.70107 15.7322 1.23223C16.2011 0.763391 16.837 0.5 17.5 0.5C18.163 0.5 18.7989 0.763391 19.2678 1.23223C19.7366 1.70107 20 2.33696 20 3V15.5H32.5C33.163 15.5 33.7989 15.7634 34.2678 16.2322C34.7366 16.7011 35 17.337 35 18C35 18.663 34.7366 19.2989 34.2678 19.7678C33.7989 20.2366 33.163 20.5 32.5 20.5Z" fill="#B3B3B3"/>
</svg>
