<svg width="299" height="299" viewBox="0 0 299 299" fill="none" xmlns="http://www.w3.org/2000/svg">
<rect x="3.5" y="3.5" width="292" height="292" rx="146" fill="#F3F3F3" stroke="white" stroke-width="7"/>
<g clip-path="url(#clip0_47_3336)">
<path d="M149 157.5C153.142 157.5 156.5 154.142 156.5 150C156.5 145.858 153.142 142.5 149 142.5C144.858 142.5 141.5 145.858 141.5 150C141.5 154.142 144.858 157.5 149 157.5Z" fill="#BFBFBF"/>
<path d="M169 129.999H161.075L157.975 126.624C157.05 125.599 155.7 124.999 154.3 124.999H143.7C142.3 124.999 140.95 125.599 140 126.624L136.925 129.999H129C126.25 129.999 124 132.249 124 134.999V164.999C124 167.749 126.25 169.999 129 169.999H169C171.75 169.999 174 167.749 174 164.999V134.999C174 132.249 171.75 129.999 169 129.999ZM149 162.499C142.1 162.499 136.5 156.899 136.5 149.999C136.5 143.099 142.1 137.499 149 137.499C155.9 137.499 161.5 143.099 161.5 149.999C161.5 156.899 155.9 162.499 149 162.499Z" fill="#BFBFBF"/>
</g>
<defs>
<clipPath id="clip0_47_3336">
<rect width="60" height="60" fill="white" transform="translate(119 120)"/>
</clipPath>
</defs>
</svg>
