<svg width="21" height="21" viewBox="0 0 21 21" fill="none" xmlns="http://www.w3.org/2000/svg">
<path d="M19.6875 1.32738C19.1188 0.758627 18.2 0.758627 17.6313 1.32738L10.5 8.44404L3.3688 1.31279C2.80005 0.744043 1.8813 0.744043 1.31255 1.31279C0.743799 1.88154 0.743799 2.80029 1.31255 3.36904L8.4438 10.5003L1.31255 17.6315C0.743799 18.2003 0.743799 19.119 1.31255 19.6878C1.8813 20.2565 2.80005 20.2565 3.3688 19.6878L10.5 12.5565L17.6313 19.6878C18.2 20.2565 19.1188 20.2565 19.6875 19.6878C20.2563 19.119 20.2563 18.2003 19.6875 17.6315L12.5563 10.5003L19.6875 3.36904C20.2417 2.81488 20.2417 1.88154 19.6875 1.32738Z" fill="black"/>
</svg>
