<svg width="29" height="30" viewBox="0 0 29 30" fill="none" xmlns="http://www.w3.org/2000/svg">
<path d="M17.0312 21.8386H16.7812L16.6313 22.0386L14.5 24.8803L12.3687 22.0386L12.2188 21.8386H11.9688H5.21875C4.76498 21.8386 4.25253 21.5952 3.841 21.1827C3.42932 20.7701 3.1875 20.2575 3.1875 19.8074V5.46362C3.1875 5.01354 3.42932 4.50085 3.841 4.08826C4.25253 3.67582 4.76498 3.43237 5.21875 3.43237H23.7812C24.235 3.43237 24.7475 3.67582 25.159 4.08826C25.5707 4.50085 25.8125 5.01354 25.8125 5.46362V19.8074C25.8125 20.2575 25.5707 20.7701 25.159 21.1827C24.7475 21.5952 24.235 21.8386 23.7812 21.8386H17.0312ZM14.1232 28.5743L14.5 29.0065L14.8768 28.5743L18.407 24.5261H23.7812C25.131 24.5261 26.3157 24.0918 27.1668 23.2833C28.0206 22.4723 28.5 21.3209 28.5 19.9652V5.71421C28.5 2.96602 26.258 0.744873 23.5003 0.744873H5.49973C2.74199 0.744873 0.5 2.96602 0.5 5.71421V19.9652C0.5 21.3209 0.979412 22.4723 1.83319 23.2833C2.68426 24.0918 3.86897 24.5261 5.21875 24.5261H10.593L14.1232 28.5743Z" fill="#848484" stroke="#848484"/>
</svg>
