<svg width="35" height="35" viewBox="0 0 37 38" fill="#B3B3B3" xmlns="http://www.w3.org/2000/svg">
<path id="Vector" d="M12.4844 20.6099H11.9844V21.1099V33.0213H4.78125V14.424L18.5 5.08361L32.2187 14.424V33.0213H25.0156V21.1099V20.6099H24.5156H12.4844ZM1.35547 12.8191L0.917505 12.5779C0.642358 13.0775 0.5 13.6068 0.5 14.1596V33.5213C0.5 34.4962 0.883442 35.3319 1.62096 36.0014C2.35663 36.6693 3.25338 37 4.28125 37H15.7656H16.2656V36.5V24.5887H20.7344V36.5V37H21.2344H32.7187C33.7466 37 34.6434 36.6693 35.379 36.0014C36.1166 35.3319 36.5 34.4962 36.5 33.5213V14.1596C36.5 13.6068 36.3576 13.0775 36.0825 12.5779L35.6445 12.8191L36.0825 12.5779C35.8079 12.0794 35.4348 11.6715 34.966 11.3613C34.965 11.3607 34.964 11.36 34.963 11.3593L20.7501 1.68245C20.4178 1.45615 20.062 1.28479 19.6839 1.17037C19.3059 1.05599 18.9105 1 18.5 1C18.0895 1 17.6941 1.05599 17.3161 1.17037C16.938 1.28479 16.5822 1.45615 16.2499 1.68244L16.5313 2.09574L16.2499 1.68244L2.03395 11.3614C1.56519 11.6715 1.19208 12.0794 0.917505 12.5779L1.35547 12.8191Z" fill="#B3B3B3"/>
</svg>
