<svg width="30" height="30" viewBox="0 0 30 30" fill="none" xmlns="http://www.w3.org/2000/svg">
<path d="M6.09375 13.125H1.40625C0.62959 13.125 0 13.7546 0 14.5313V28.5938C0 29.3704 0.62959 30 1.40625 30H6.09375C6.87041 30 7.5 29.3704 7.5 28.5938V14.5313C7.5 13.7546 6.87041 13.125 6.09375 13.125ZM3.75 27.6563C2.97334 27.6563 2.34375 27.0267 2.34375 26.25C2.34375 25.4734 2.97334 24.8438 3.75 24.8438C4.52666 24.8438 5.15625 25.4734 5.15625 26.25C5.15625 27.0267 4.52666 27.6563 3.75 27.6563ZM22.5 4.77258C22.5 7.2579 20.9783 8.65196 20.5502 10.3125H26.5105C28.4674 10.3125 29.9908 11.9383 30 13.7167C30.0049 14.7677 29.5578 15.8993 28.861 16.5993L28.8545 16.6058C29.4308 17.9732 29.3371 19.8892 28.3091 21.2622C28.8178 22.7794 28.3051 24.6433 27.3492 25.6425C27.6011 26.6736 27.4807 27.5512 26.989 28.2576C25.7931 29.9758 22.8291 30 20.3226 30L20.1559 30C17.3266 29.999 15.011 28.9688 13.1504 28.1411C12.2155 27.7251 10.993 27.2102 10.0654 27.1931C9.68221 27.1861 9.37501 26.8734 9.37501 26.4901V13.9645C9.37501 13.777 9.45012 13.5971 9.58348 13.4653C11.9046 11.1717 12.9027 8.74337 14.8052 6.83766C15.6726 5.9686 15.9881 4.65586 16.2931 3.38637C16.5536 2.30233 17.0987 0 18.2813 0C19.6875 0 22.5 0.46875 22.5 4.77258Z" fill="#9746FF"/>
</svg>
