<svg width="35" height="35" viewBox="0 0 35 36" fill="#9746FF" xmlns="http://www.w3.org/2000/svg">
<path id="Vector" d="M17.5 18C15.0937 18 13.0339 17.1432 11.3203 15.4297C9.60677 13.7161 8.75 11.6562 8.75 9.25C8.75 6.84375 9.60677 4.78385 11.3203 3.07031C13.0339 1.35677 15.0937 0.5 17.5 0.5C19.9062 0.5 21.9661 1.35677 23.6797 3.07031C25.3932 4.78385 26.25 6.84375 26.25 9.25C26.25 11.6562 25.3932 13.7161 23.6797 15.4297C21.9661 17.1432 19.9062 18 17.5 18ZM0 35.5V29.375C0 28.1354 0.319375 26.9957 0.958125 25.9559C1.59688 24.9161 2.44417 24.1235 3.5 23.5781C5.76042 22.4479 8.05729 21.5999 10.3906 21.0341C12.724 20.4682 15.0937 20.186 17.5 20.1875C19.9062 20.1875 22.276 20.4704 24.6094 21.0362C26.9427 21.6021 29.2396 22.4494 31.5 23.5781C32.5573 24.125 33.4053 24.9183 34.0441 25.9581C34.6828 26.9979 35.0015 28.1369 35 29.375V35.5H0ZM4.375 31.125H30.625V29.375C30.625 28.974 30.5244 28.6094 30.3231 28.2812C30.1219 27.9531 29.8579 27.6979 29.5312 27.5156C27.5625 26.5312 25.5755 25.7933 23.5703 25.3019C21.5651 24.8104 19.5417 24.564 17.5 24.5625C15.4583 24.5625 13.4349 24.809 11.4297 25.3019C9.42448 25.7948 7.4375 26.5327 5.46875 27.5156C5.14062 27.6979 4.87594 27.9531 4.67469 28.2812C4.47344 28.6094 4.37354 28.974 4.375 29.375V31.125ZM17.5 13.625C18.7031 13.625 19.7334 13.1962 20.5909 12.3387C21.4484 11.4812 21.8765 10.4517 21.875 9.25C21.875 8.04688 21.4462 7.01656 20.5887 6.15906C19.7312 5.30156 18.7017 4.87354 17.5 4.875C16.2969 4.875 15.2666 5.30375 14.4091 6.16125C13.5516 7.01875 13.1235 8.04833 13.125 9.25C13.125 10.4531 13.5537 11.4834 14.4112 12.3409C15.2687 13.1984 16.2983 13.6265 17.5 13.625Z" fill="#9746FF"/>
</svg>
