<svg width="27" height="31" viewBox="0 0 27 31" fill="none" xmlns="http://www.w3.org/2000/svg">
<path id="Vector" d="M1.03845 13.055L2.07304 12.9656C2.02513 12.4115 1.54927 11.9936 0.993687 12.0175C0.438088 12.0415 0 12.4989 0 13.055H1.03845ZM24.9036 15.5794L23.9268 21.2282L25.9733 21.5822L26.9502 15.9333L24.9036 15.5794ZM15.2237 28.3075H8.78717V30.3844H15.2237V28.3075ZM7.52528 27.1479L6.40077 14.1428L4.33159 14.3216L5.45611 27.3268L7.52528 27.1479ZM23.9268 21.2282C23.225 25.2859 19.5662 28.3075 15.2237 28.3075V30.3844C20.5215 30.3844 25.0901 26.6889 25.9733 21.5822L23.9268 21.2282ZM15.2373 5.9464L14.3197 11.5465L16.3693 11.8823L17.2869 6.28222L15.2373 5.9464ZM6.83679 13.0708L8.82887 11.3542L7.4731 9.7809L5.48102 11.4975L6.83679 13.0708ZM12.4531 5.76904L13.1118 3.22989L11.1015 2.70839L10.4428 5.24755L12.4531 5.76904ZM14.1066 2.73171L14.3074 2.79619L14.9426 0.818828L14.7419 0.754347L14.1066 2.73171ZM11.4555 8.32215C11.8874 7.51353 12.2229 6.65703 12.4531 5.76904L10.4428 5.24755C10.254 5.97536 9.97881 6.67855 9.62357 7.34359L11.4555 8.32215ZM14.3074 2.79619C14.7316 2.93249 15.0329 3.26019 15.1319 3.64199L17.1423 3.12051C16.8578 2.02387 16.0185 1.16444 14.9426 0.818828L14.3074 2.79619ZM13.1118 3.22989C13.1604 3.04296 13.2954 2.87117 13.4996 2.77274L12.5979 0.901738C11.8613 1.25667 11.308 1.91183 11.1015 2.70839L13.1118 3.22989ZM13.4996 2.77274C13.6861 2.68283 13.9057 2.66719 14.1066 2.73171L14.7419 0.754347C14.0361 0.527618 13.2661 0.579749 12.5979 0.901738L13.4996 2.77274ZM16.4819 14.0935H23.6557V12.0166H16.4819V14.0935ZM3.41832 28.5236L2.07304 12.9656L0.003863 13.1445L1.34914 28.7025L3.41832 28.5236ZM2.0769 28.6712V13.055H0V28.6712H2.0769ZM1.34914 28.7025C1.33088 28.4914 1.49739 28.3075 1.71235 28.3075V30.3844C2.71753 30.3844 3.50473 29.5231 3.41832 28.5236L1.34914 28.7025ZM17.2869 6.28222C17.4593 5.22974 17.4101 4.15283 17.1423 3.12051L15.1319 3.64199C15.3271 4.39437 15.363 5.17929 15.2373 5.9464L17.2869 6.28222ZM8.78717 28.3075C8.13099 28.3075 7.58209 27.8049 7.52528 27.1479L5.45611 27.3268C5.60559 29.0555 7.05136 30.3844 8.78717 30.3844V28.3075ZM8.82887 11.3542C9.7702 10.5431 10.7849 9.57754 11.4555 8.32215L9.62357 7.34359C9.14397 8.2414 8.3803 8.99914 7.4731 9.7809L8.82887 11.3542ZM26.9502 15.9333C27.3037 13.889 25.7316 12.0166 23.6557 12.0166V14.0935C24.4402 14.0935 25.038 14.802 24.9036 15.5794L26.9502 15.9333ZM1.71235 28.3075C1.91479 28.3075 2.0769 28.4715 2.0769 28.6712H0C0 29.6164 0.765533 30.3844 1.71235 30.3844V28.3075ZM14.3197 11.5465C14.1013 12.8797 15.129 14.0935 16.4819 14.0935V12.0166C16.4128 12.0166 16.3575 11.954 16.3693 11.8823L14.3197 11.5465ZM6.40077 14.1428C6.36557 13.7357 6.52805 13.3369 6.83679 13.0708L5.48102 11.4975C4.66641 12.1995 4.23895 13.2504 4.33159 14.3216L6.40077 14.1428Z" fill="#848484"/>
</svg>
