<svg width="30" height="33" viewBox="0 0 30 33" fill="none" xmlns="http://www.w3.org/2000/svg">
<path d="M29.1419 18.6635C29.69 17.7354 30 16.7454 30 15.5485C30 12.7975 27.6739 10.1997 24.6362 10.1997H22.3563C22.6638 9.39911 22.9094 8.44161 22.9094 7.29099C22.9094 2.74136 20.5538 0.745361 16.955 0.745361C13.1046 0.745361 13.3242 6.67867 12.47 7.53286C11.0483 8.95455 9.36906 11.6858 8.1725 12.7454H2C0.895437 12.7454 0 13.6408 0 14.7454V29.7454C0 30.8499 0.895437 31.7454 2 31.7454H6C6.93081 31.7454 7.713 31.1095 7.93612 30.2485C10.7179 30.311 12.6274 32.7447 19.0487 32.7447C19.5 32.7447 20 32.7454 20.4375 32.7454C25.2573 32.7454 27.4366 30.2814 27.4963 26.7872C28.3287 25.6357 28.7649 24.0921 28.58 22.6004C29.1959 21.4471 29.434 20.0789 29.1419 18.6635ZM25.2825 22.0279C26.0675 23.3485 25.3612 25.116 24.4112 25.626C24.8925 28.6747 23.3107 29.7447 21.0912 29.7447H18.7275C14.2501 29.7447 11.3507 27.381 8 27.381V15.7454H8.6825C10.455 15.7454 12.9313 11.3147 14.5913 9.65411C16.3638 7.88161 15.7731 4.92724 16.955 3.74536C19.9094 3.74536 19.9094 5.80661 19.9094 7.29099C19.9094 9.73911 18.1369 10.836 18.1369 13.1997H24.6362C25.9556 13.1997 26.9944 14.3816 27 15.5635C27.0056 16.7447 26.1988 17.9266 25.6081 17.9266C26.4512 18.8363 26.6313 20.7539 25.2825 22.0279ZM5.5 27.7454C5.5 28.5738 4.82844 29.2454 4 29.2454C3.17156 29.2454 2.5 28.5738 2.5 27.7454C2.5 26.9169 3.17156 26.2454 4 26.2454C4.82844 26.2454 5.5 26.9169 5.5 27.7454Z" fill="#848484"/>
</svg>
