<svg width="27" height="27" viewBox="0 0 27 27" fill="none" xmlns="http://www.w3.org/2000/svg">
<g id="comment-5-svgrepo-com 1" clip-path="url(#clip0_131_2315)">
<g id="Page-1">
<g id="Icon-Set">
<path id="comment-5" fill-rule="evenodd" clip-rule="evenodd" d="M25.3125 18.5625C25.3125 19.7969 24.0241 21.0938 22.7812 21.0938H16.0312L13.5 24.4688L10.9688 21.0938H4.21875C2.97591 21.0938 1.6875 19.7969 1.6875 18.5625V4.21875C1.6875 2.98434 2.97591 1.6875 4.21875 1.6875H22.7812C24.0241 1.6875 25.3125 2.98434 25.3125 4.21875V18.5625ZM22.5003 0H4.49973C2.01488 0 0 2.00053 0 4.46934V18.7203C0 21.1874 1.73391 22.7812 4.21875 22.7812H9.82041L13.5 27.0009L17.1796 22.7812H22.7812C25.2661 22.7812 27 21.1874 27 18.7203V4.46934C27 2.00053 24.9851 0 22.5003 0Z" fill="#848484"/>
</g>
</g>
</g>
<defs>
<clipPath id="clip0_131_2315">
<rect width="27" height="27" fill="white"/>
</clipPath>
</defs>
</svg>
