<svg width="42" height="39" viewBox="0 0 42 39" fill="none" xmlns="http://www.w3.org/2000/svg">
<g id="ic:round-plus">
<path id="Vector" d="M31.5 21.1218H22.75V29.2468C22.75 29.6778 22.5656 30.0911 22.2374 30.3959C21.9092 30.7006 21.4641 30.8718 21 30.8718C20.5359 30.8718 20.0908 30.7006 19.7626 30.3959C19.4344 30.0911 19.25 29.6778 19.25 29.2468V21.1218H10.5C10.0359 21.1218 9.59075 20.9506 9.26256 20.6459C8.93437 20.3411 8.75 19.9278 8.75 19.4968C8.75 19.0658 8.93437 18.6525 9.26256 18.3478C9.59075 18.043 10.0359 17.8718 10.5 17.8718H19.25V9.74683C19.25 9.31585 19.4344 8.90252 19.7626 8.59778C20.0908 8.29303 20.5359 8.12183 21 8.12183C21.4641 8.12183 21.9092 8.29303 22.2374 8.59778C22.5656 8.90252 22.75 9.31585 22.75 9.74683V17.8718H31.5C31.9641 17.8718 32.4093 18.043 32.7374 18.3478C33.0656 18.6525 33.25 19.0658 33.25 19.4968C33.25 19.9278 33.0656 20.3411 32.7374 20.6459C32.4093 20.9506 31.9641 21.1218 31.5 21.1218Z" fill="#848484"/>
</g>
</svg>
